# xmcd
#
# Track frame offsets:
#	182
#	11640
#	24507
#	36830
#	51540
#	65530
#	79850
#	92732
#	102340
#	112222
#	124445
#	140842
#	153115
#	165420
#	178407
#	188942
#	205692
#	217405
#	233512
#	246207
#
# Disc length: 3443 seconds
#
# Revision: 3
# Processed by: cddbd v1.5.1PL0 Copyright (c) Steve Scherf et al.
# Submitted via: audiograbber 1.83.01
#
DISCID=290d7114
DTITLE=Merle Haggard - 20 Hits
DYEAR=1995
DGENRE=Country
TTITLE0=(My Friends Are Gonna Be) Strangers
TTITLE1=Swingin' Doors
TTITLE2=The Bottle Let Me Down
TTITLE3=I'm A Lonesome Fugitive
TTITLE4=I Threw Away The Rose
TTITLE5=Branded Man
TTITLE6=Sing Me Back Home
TTITLE7=The Legend of Bonnie and Clyde
TTITLE8=Mama Tried
TTITLE9=I Take Alot Of Pride In What I Am
TTITLE10=Hungry Eyes
TTITLE11=Workin' Man Blues
TTITLE12=Okie From Muskogee
TTITLE13=The Fightin' Side Of Me
TTITLE14=Someday We'll Look Back
TTITLE15=Daddy Frank (The Guitar Man)
TTITLE16=Carolyn
TTITLE17=It's Not Love (But It's Not Bad)
TTITLE18=The Emptiest Arms In The World
TTITLE19=Everybody's Had The Blues
EXTD=
EXTT0=
EXTT1=
EXTT2=
EXTT3=
EXTT4=
EXTT5=
EXTT6=
EXTT7=
EXTT8=
EXTT9=
EXTT10=
EXTT11=
EXTT12=
EXTT13=
EXTT14=
EXTT15=
EXTT16=
EXTT17=
EXTT18=
EXTT19=
PLAYORDER=
